<svg width="19" height="27" viewBox="0 0 19 27" fill="none" xmlns="http://www.w3.org/2000/svg">
<path d="M7.992 17.648C7.992 16.352 8.28 15.284 8.856 14.444C9.456 13.58 10.32 12.644 11.448 11.636C12.312 10.868 12.948 10.208 13.356 9.656C13.788 9.08 14.004 8.432 14.004 7.712C14.004 6.704 13.596 5.888 12.78 5.264C11.964 4.64 10.872 4.328 9.504 4.328C6.912 4.328 4.956 5.252 3.636 7.1L0.144 4.832C1.176 3.416 2.508 2.336 4.14 1.592C5.772 0.823999 7.692 0.439999 9.9 0.439999C12.588 0.439999 14.724 1.028 16.308 2.204C17.916 3.356 18.72 4.952 18.72 6.992C18.72 7.976 18.552 8.84 18.216 9.584C17.904 10.328 17.52 10.964 17.064 11.492C16.608 11.996 16.008 12.584 15.264 13.256C14.352 14.072 13.668 14.792 13.212 15.416C12.78 16.04 12.564 16.784 12.564 17.648H7.992ZM10.296 26.252C9.456 26.252 8.76 25.988 8.208 25.46C7.68 24.908 7.416 24.236 7.416 23.444C7.416 22.652 7.68 21.992 8.208 21.464C8.76 20.936 9.456 20.672 10.296 20.672C11.112 20.672 11.784 20.936 12.312 21.464C12.864 21.992 13.14 22.652 13.14 23.444C13.14 24.236 12.864 24.908 12.312 25.46C11.784 25.988 11.112 26.252 10.296 26.252Z" fill="#202020"/>
</svg>
