<svg width="506" height="980" viewBox="0 0 506 980" fill="none" xmlns="http://www.w3.org/2000/svg">
<path opacity="0.9" fill-rule="evenodd" clip-rule="evenodd" d="M-313.909 119.532C-225.169 60.4133 -117.005 104.89 -15.3923 85.6304C82.295 67.1147 181.054 -27.8429 267.606 9.3114C354.03 46.4109 344.717 173.012 385.338 257.652C426.003 342.384 513.046 406.856 505.494 504.987C497.674 606.59 438.335 719.682 345.851 770.721C255.861 820.384 156.962 716.859 61.097 750.235C-62.4017 793.232 -128.768 988.449 -254.145 979.612C-368.406 971.559 -396.516 818.082 -439.126 714.98C-479.642 616.947 -681.381 507.047 -658.305 397.312C-635.353 288.173 -409.296 183.079 -313.909 119.532Z" fill="#EE22E6" fill-opacity="0.4"/>
</svg>
