<svg width="397" height="879" viewBox="0 0 397 879" fill="none" xmlns="http://www.w3.org/2000/svg">
<path opacity="0.9" fill-rule="evenodd" clip-rule="evenodd" d="M-193.803 1.78777C-87.8381 -9.85439 -12.5881 78.8803 86.3425 108.327C181.451 136.637 312.872 97.922 372.363 170.309C431.766 242.588 364.949 350.145 361.782 443.472C358.611 536.899 405.9 633.637 353.814 716.854C299.885 803.016 194.998 875.769 89.454 878.564C-13.2442 881.283 -52.9705 744.633 -153.34 730.281C-282.64 711.793 -431.743 853.867 -538.73 788.74C-636.231 729.388 -590.136 580.983 -580.191 470.441C-570.734 365.335 -554.35 257.264 -483.143 170.895C-412.322 84.9962 -307.706 14.3019 -193.803 1.78777Z" fill="#47FFE9" fill-opacity="0.4"/>
</svg>

