<svg width="945" height="622" viewBox="0 0 945 622" fill="none" xmlns="http://www.w3.org/2000/svg">
<path opacity="0.9" fill-rule="evenodd" clip-rule="evenodd" d="M405.998 -255.524C511.963 -267.166 587.213 -178.431 686.144 -148.984C781.252 -120.675 912.673 -159.389 972.164 -87.0027C1031.57 -14.723 964.75 92.8341 961.583 186.16C958.412 279.588 1005.7 376.326 953.615 459.543C899.686 545.704 794.799 618.458 689.255 621.253C586.557 623.971 546.83 487.322 446.461 472.97C317.161 454.482 168.058 596.556 61.0711 531.429C-36.4301 472.076 9.66504 323.672 19.6104 213.13C29.0668 108.023 45.4506 -0.0475929 116.658 -86.4161C187.479 -172.315 292.095 -243.009 405.998 -255.524Z" fill="#47FFE9" fill-opacity="0.4"/>
</svg>
