<svg width="35" height="34" viewBox="0 0 35 34" fill="none" xmlns="http://www.w3.org/2000/svg">
<path d="M18.9583 4.25C11.7104 4.25 5.83333 9.95917 5.83333 17H1.45833L7.13124 22.5108L7.23333 22.7092L13.125 17H8.75C8.75 11.5175 13.3146 7.08333 18.9583 7.08333C24.6021 7.08333 29.1667 11.5175 29.1667 17C29.1667 22.4825 24.6021 26.9167 18.9583 26.9167C16.1437 26.9167 13.5917 25.7975 11.7542 23.9983L9.68333 26.01C12.0604 28.3192 15.3271 29.75 18.9583 29.75C26.2062 29.75 32.0833 24.0408 32.0833 17C32.0833 9.95917 26.2062 4.25 18.9583 4.25ZM17.5 11.3333V18.4167L23.7417 22.015L24.7917 20.3008L19.6875 17.3542V11.3333H17.5Z" fill="black"/>
</svg>
