<svg width="81" height="80" viewBox="0 0 81 80" fill="none" xmlns="http://www.w3.org/2000/svg">
<path d="M76.1789 0.552841C75.4606 0.892036 74.5428 1.65023 73.4454 2.78752C72.5475 3.72529 62.1323 16.1756 50.3404 30.4416C38.5286 44.7077 28.7519 56.3998 28.6321 56.4198C28.5124 56.4397 25.5395 53.0877 22.0279 48.9575C15.1443 40.8768 14.3462 39.9989 13.0892 39.1609C9.17847 36.5271 3.67159 37.8041 1.11767 41.9542C-0.478523 44.568 -0.358808 48.4587 1.43691 51.0725C1.77611 51.5713 6.88394 57.6169 12.8098 64.5005C21.9281 75.1352 23.7238 77.1105 24.6815 77.6891C26.4773 78.7665 27.6744 79.0858 29.6896 78.986C31.7447 78.8863 33.5205 78.168 34.977 76.8112C35.6554 76.2126 41.8008 66.7951 57.7228 42.034C69.7143 23.3585 79.6905 7.79559 79.89 7.4165C80.9475 5.32148 81.3266 2.6279 80.6881 1.4108C79.91 -0.08564 78.1741 -0.424828 76.1789 0.552841Z" fill="#1BB90D"/>
</svg>
