<svg width="1006" height="623" viewBox="0 0 1006 623" fill="none" xmlns="http://www.w3.org/2000/svg">
<path opacity="0.9" fill-rule="evenodd" clip-rule="evenodd" d="M346.892 -237.779C435.632 -296.898 543.796 -252.421 645.409 -271.681C743.096 -290.197 841.855 -385.154 928.407 -348C1014.83 -310.901 1005.52 -184.299 1046.14 -99.6593C1086.8 -14.9276 1173.85 49.5444 1166.29 147.675C1158.48 249.278 1099.14 362.371 1006.65 413.41C916.662 463.072 817.763 359.548 721.898 392.924C598.399 435.921 532.033 631.138 406.656 622.301C292.395 614.248 264.285 460.77 221.675 357.668C181.159 259.636 -20.5799 149.736 2.49652 40.0001C25.4475 -69.1389 251.505 -174.232 346.892 -237.779Z" fill="#EE22E6" fill-opacity="0.4"/>
</svg>
